<svg width="142" height="31" viewBox="0 0 142 31" fill="none" xmlns="http://www.w3.org/2000/svg">
<path d="M101.048 14.5365C101.099 14.5431 101.153 14.5266 101.194 14.4903C101.235 14.454 101.258 14.4045 101.261 14.3484L101.334 12.474C101.344 12.2265 101.178 12.012 100.946 11.9691C99.1707 11.6259 97.5513 12.4839 96.7273 13.9095V12.6918C96.7273 12.4179 96.5141 12.1968 96.2501 12.1968H94.7516C94.4875 12.1968 94.2744 12.4179 94.2744 12.6918V24.2483C94.2744 24.5222 94.4875 24.7433 94.7516 24.7433H96.2501C96.5141 24.7433 96.7273 24.5222 96.7273 24.2483V18.4469C96.7273 17.1236 97.0136 16.1403 97.5799 15.5199C98.4071 14.6091 99.9215 14.4078 101.048 14.5365Z" fill="white"/>
<path d="M51.149 24.7465C50.8849 24.7465 50.6718 24.5254 50.6718 24.2515V12.695C50.6718 12.4211 50.8849 12.2 51.149 12.2H52.6475C52.9115 12.2 53.1247 12.4211 53.1247 12.695V24.2515C53.1247 24.5254 52.9115 24.7465 52.6475 24.7465H51.149ZM51.8966 9.59631C50.9804 9.59631 50.2327 8.81422 50.2327 7.86712C50.2327 6.92003 50.9836 6.13794 51.8966 6.13794C52.8161 6.13794 53.5638 6.92663 53.5638 7.86712C53.5606 8.81752 52.8066 9.59631 51.8966 9.59631Z" fill="white"/>
<path d="M103.914 24.7465C103.65 24.7465 103.437 24.5254 103.437 24.2515V12.695C103.437 12.4211 103.65 12.2 103.914 12.2H105.413C105.677 12.2 105.89 12.4211 105.89 12.695V24.2515C105.89 24.5254 105.677 24.7465 105.413 24.7465H103.914Z" fill="white"/>
<path d="M128.88 24.7465C128.743 24.7465 128.615 24.6871 128.523 24.5815L123.277 18.4963V24.2515C123.277 24.5254 123.064 24.7465 122.8 24.7465H121.301C121.037 24.7465 120.824 24.5254 120.824 24.2515V6.59659C120.824 6.3227 121.037 6.1016 121.301 6.1016H122.8C123.064 6.1016 123.277 6.3227 123.277 6.59659V17.4238L128.126 12.3716C128.215 12.2792 128.335 12.2264 128.463 12.2264H131.212C131.288 12.2264 131.358 12.2759 131.387 12.3485C131.415 12.4244 131.399 12.5069 131.342 12.563L126.026 17.9287L131.841 24.4132C131.892 24.4693 131.908 24.5551 131.876 24.6277C131.848 24.7003 131.778 24.7465 131.702 24.7465H128.88Z" fill="white"/>
<path d="M80.1866 24.7465C79.9225 24.7465 79.7094 24.5254 79.7094 24.2515V17.3545C79.7094 15.5395 78.8504 14.2756 77.091 14.2756C74.8671 14.2756 73.8713 15.9553 73.8713 18.2917V24.2515C73.8713 24.5254 73.6582 24.7465 73.3941 24.7465H71.8956C71.6316 24.7465 71.4184 24.5254 71.4184 24.2515V6.59659C71.4184 6.3227 71.6316 6.1016 71.8956 6.1016H73.3941C73.6582 6.1016 73.8713 6.3227 73.8713 6.59659V13.8862C74.6158 12.5267 76.2225 11.8832 77.7432 11.8832C80.3711 11.8832 82.1591 13.6091 82.1591 16.6978V24.2482C82.1591 24.5221 81.946 24.7432 81.6819 24.7432H80.1866V24.7465Z" fill="white"/>
<path d="M38.5249 24.7465C38.2608 24.7465 38.0476 24.5254 38.0476 24.2515V6.59659C38.0476 6.3227 38.2608 6.1016 38.5249 6.1016H40.1729C40.4369 6.1016 40.6501 6.3227 40.6501 6.59659V22.2022H48.3366C48.6007 22.2022 48.8138 22.4233 48.8138 22.6972V24.2515C48.8138 24.5254 48.6007 24.7465 48.3366 24.7465H38.5249Z" fill="white"/>
<path d="M118.721 22.7302C118.813 22.8226 118.861 22.9513 118.861 23.0866C118.858 23.2186 118.804 23.3473 118.711 23.4397C117.544 24.5881 116.099 25.0798 114.4 25.0798C110.777 25.0798 108.076 22.5355 108.076 18.5458C108.076 14.7443 110.564 11.9327 114.4 11.9327C116.033 11.9327 117.537 12.4607 118.74 13.6091C118.839 13.7048 118.896 13.8368 118.896 13.9754C118.893 14.114 118.839 14.246 118.74 14.3417L117.668 15.3548C117.49 15.5231 117.219 15.5297 117.035 15.368C116.297 14.7179 115.333 14.3186 114.302 14.3186C111.922 14.3186 110.678 16.3118 110.678 18.5953C110.678 20.8261 112.129 22.6906 114.426 22.6906C115.368 22.6906 116.284 22.3639 117.012 21.6874C117.114 21.5983 117.194 21.5257 117.362 21.5257C117.496 21.5257 117.614 21.5818 117.7 21.6709L118.721 22.7302Z" fill="white"/>
<path d="M135.472 15.5528C135.472 14.8862 136.13 14.2724 137.371 14.2724C138.227 14.2724 139.019 14.642 139.608 15.1799C139.776 15.335 140.031 15.3482 140.212 15.203L141.297 14.3516C141.402 14.2691 141.469 14.147 141.485 14.0117C141.501 13.8764 141.459 13.7411 141.373 13.6388C140.47 12.53 139.168 11.8865 137.501 11.8865C135.052 11.8865 132.875 13.2923 132.875 15.8102C132.875 16.9949 133.416 18.338 135.211 18.9815C137.04 19.6382 139.391 19.6415 139.391 21.2057C139.391 22.2056 138.198 22.6709 137.075 22.6709C136.197 22.6709 135.157 22.2617 134.431 21.539C134.256 21.3641 133.986 21.3542 133.798 21.5126L132.77 22.3904C132.672 22.4762 132.608 22.5983 132.599 22.7336C132.589 22.8689 132.63 23.0009 132.716 23.0999C133.744 24.3043 135.246 25.0765 137.05 25.0765C139.639 25.0765 142 23.7731 142 21.0869C141.997 16.193 135.472 18.2027 135.472 15.5528Z" fill="white"/>
<path d="M88.7576 20.9747C88.7417 20.6414 88.7321 20.2982 88.7321 19.9517V14.4507H91.4937C91.7577 14.4507 91.9709 14.2296 91.9709 13.9557V12.7149C91.9709 12.441 91.7577 12.2199 91.4937 12.2199H88.7321V9.2499C88.7321 8.976 88.519 8.75491 88.2549 8.75491H86.7564C86.4924 8.75491 86.2792 8.976 86.2792 9.2499V12.2199H84.1444C83.8803 12.2199 83.6672 12.441 83.6672 12.7149V13.9557C83.6672 14.2296 83.8803 14.4507 84.1444 14.4507H86.2792V20.7866C86.2792 22.3145 86.3301 23.5487 87.3418 24.3605C88.484 25.2779 90.6379 25.2086 91.7387 24.7697C91.9232 24.6971 92.0441 24.5123 92.0441 24.3077V22.6478C92.0441 22.5818 92.0123 22.5224 91.9614 22.4861C91.9105 22.4498 91.8468 22.4399 91.7864 22.463C90.2656 23.0372 88.8467 22.7468 88.7576 20.9747Z" fill="white"/>
<path d="M66.4171 12.2C66.1531 12.2 65.9399 12.4211 65.9399 12.695V13.8368C65.0077 12.5663 63.3565 11.8865 61.8421 11.8865C58.0784 11.8865 55.6923 14.7971 55.6923 18.4733C55.6923 22.166 58.3011 24.9049 61.8421 24.9049C63.4329 24.9049 65.0332 24.2515 65.9399 22.8359C65.9399 24.5716 66.4076 28.6141 61.7403 28.6141C60.2577 28.6405 58.8451 28.0564 57.7921 27.0202C57.6966 26.9245 57.563 26.875 57.4326 26.8849C57.3021 26.8948 57.1749 26.9608 57.0921 27.0697L56.1186 28.3303C55.9563 28.5382 55.985 28.8451 56.1822 29.0167C57.6266 30.2839 59.2874 31 61.7912 31C65.6154 31 68.3928 28.459 68.3928 24.5452V12.6983C68.3928 12.4244 68.1797 12.2033 67.9156 12.2033H66.4171V12.2ZM62.1157 22.5158C59.7232 22.5158 58.2916 20.8922 58.2916 18.4733C58.2916 15.9026 59.8759 14.2724 62.1157 14.2724C64.3682 14.2724 65.9399 15.9158 65.9399 18.4733C65.9399 20.8922 64.5114 22.5158 62.1157 22.5158Z" fill="white"/>
<path d="M104.662 9.59631C103.746 9.59631 102.998 8.81422 102.998 7.86712C102.998 6.92003 103.749 6.13794 104.662 6.13794C105.581 6.13794 106.329 6.92663 106.329 7.86712C106.329 8.81752 105.575 9.59631 104.662 9.59631Z" fill="white"/>
<path d="M22.8177 17.1038C22.8209 17.1038 22.8209 17.1038 22.8177 17.1038C23.5177 15.5297 24.0235 14.0381 24.2176 12.7874C24.4658 11.1902 24.2271 9.92964 23.5049 9.03864C22.6396 7.96945 21.2906 7.67245 19.9448 7.66255C18.9554 7.66255 17.7973 7.83415 16.5597 8.12455C15.688 4.77177 13.9 0 10.5403 0C6.66207 0 3.58237 6.86726 1.78164 12.9095C1.11989 15.1304 0 19.5458 0 21.7139C0 26.8321 4.04687 30.9967 9.01956 30.9967C14.6508 30.9967 25.4234 27.3799 25.4234 21.7139C25.4234 19.9649 24.3989 18.4172 22.8177 17.1038ZM19.9385 9.71514C20.6384 9.72174 21.5865 9.81414 22.016 10.3883C22.4073 10.9097 22.3692 11.804 22.2673 12.4607C22.0892 13.6157 21.6279 14.8829 21.1761 15.9488C20.1103 15.2954 18.9204 14.7179 17.6764 14.2361C17.5142 12.8798 17.2978 11.4806 17.0179 10.1177C18.0996 9.86364 19.0986 9.71514 19.9385 9.71514ZM17.9023 16.5164C18.7422 16.8827 19.5376 17.2853 20.3203 17.7737C19.6553 19.0871 18.8759 20.4236 18.055 21.6842C18.1059 20.3543 18.0678 18.5393 17.9023 16.5164ZM15.5989 13.5233C13.7886 12.9821 11.9815 12.629 10.4099 12.4937C11.9402 11.7776 13.5627 11.1341 15.1121 10.6424C15.303 11.5895 15.4653 12.5597 15.5989 13.5233ZM5.03314 9.41814C6.84341 4.80477 8.90821 2.05259 10.553 2.05259C12.6624 2.05259 14.1004 6.53726 14.654 8.64925C12.6051 9.28614 10.4481 10.1771 8.50098 11.1605C6.58889 12.1208 4.67045 13.4045 3.37239 14.4836C3.77963 12.8402 4.63863 10.4312 5.03314 9.41814ZM8.97184 28.9441C5.10949 28.9177 1.97889 25.6837 1.97889 21.7139C1.97889 17.7242 5.13813 14.4803 9.02274 14.4803C11.0207 14.4803 13.515 14.9522 15.863 15.7343C16.1207 18.3809 16.1716 20.8064 16.0411 22.3475C15.7103 26.2249 12.4079 28.9342 8.97184 28.9441ZM18.3286 26.7199C17.5714 27.0697 16.7697 27.3865 15.9457 27.6637C17.9373 25.5484 20.2344 22.2221 21.9174 18.9749C22.9068 19.8824 23.4445 20.8196 23.4445 21.7139C23.4477 23.3936 21.5801 25.2184 18.3286 26.7199Z" fill="white"/>
</svg>
